<?xml version="1.0" encoding="UTF-8"?>
<svg version="1.1" xmlns="http://www.w3.org/2000/svg" width="150" height="150">
<path d="M0 0 C3.47729257 2.51679965 6.76642112 5.1782711 10 8 C10.61488281 8.51949219 11.22976562 9.03898437 11.86328125 9.57421875 C21.19739984 18.09294307 27.29687461 30.09709697 31 42 C31.24492187 42.76957031 31.48984375 43.53914063 31.7421875 44.33203125 C36.52900917 63.05309409 32.72361153 83.11829474 23.1640625 99.55859375 C20.23002556 104.35209997 16.98772102 109.02163983 13 113 C12.34 113 11.68 113 11 113 C11 113.66 11 114.32 11 115 C0.53504736 124.41079074 -12.20528869 131.15455625 -26 134 C-27.093125 134.226875 -28.18625 134.45375 -29.3125 134.6875 C-50.12036054 136.45087801 -69.46888792 132.19120998 -86 119 C-86.76957031 118.39414063 -87.53914063 117.78828125 -88.33203125 117.1640625 C-101.40963743 106.24749175 -110.68750489 89.9363781 -113 73 C-114.69711437 52.07022928 -111.04591096 33.21830625 -97.9375 16.4375 C-96.64378503 14.94187576 -95.33280025 13.4609017 -94 12 C-93.48308594 11.3915625 -92.96617188 10.783125 -92.43359375 10.15625 C-69.65495121 -14.96305506 -27.65138852 -18.49213738 0 0 Z " fill="#F3F4E8" transform="translate(115,14)"/>
<path d="M0 0 C3.47729257 2.51679965 6.76642112 5.1782711 10 8 C10.61488281 8.51949219 11.22976562 9.03898437 11.86328125 9.57421875 C21.19739984 18.09294307 27.29687461 30.09709697 31 42 C31.24492187 42.76957031 31.48984375 43.53914063 31.7421875 44.33203125 C36.52900917 63.05309409 32.72361153 83.11829474 23.1640625 99.55859375 C20.23002556 104.35209997 16.98772102 109.02163983 13 113 C12.34 113 11.68 113 11 113 C11 113.66 11 114.32 11 115 C0.53504736 124.41079074 -12.20528869 131.15455625 -26 134 C-27.093125 134.226875 -28.18625 134.45375 -29.3125 134.6875 C-50.12036054 136.45087801 -69.46888792 132.19120998 -86 119 C-86.76957031 118.39414063 -87.53914063 117.78828125 -88.33203125 117.1640625 C-101.40963743 106.24749175 -110.68750489 89.9363781 -113 73 C-114.69711437 52.07022928 -111.04591096 33.21830625 -97.9375 16.4375 C-96.64378503 14.94187576 -95.33280025 13.4609017 -94 12 C-93.48308594 11.3915625 -92.96617188 10.783125 -92.43359375 10.15625 C-69.65495121 -14.96305506 -27.65138852 -18.49213738 0 0 Z M-90.8125 21.3125 C-102.01221614 35.65775359 -106.63095845 52.46816024 -104.609375 70.48046875 C-102.18850762 85.20741197 -95.85777971 97.67840695 -85 108 C-84.34128906 108.64324219 -83.68257812 109.28648438 -83.00390625 109.94921875 C-70.91641417 121.16115808 -56.05931752 126.81639621 -39.64916992 126.44873047 C-18.35117479 125.46218109 -3.35802958 117.44067747 10.828125 102.01171875 C23.17934102 86.83272433 25.12442702 69.88578452 24 51 C22.1680148 35.77786846 12.88063469 21.64219117 1.375 11.8125 C-28.07926824 -10.57274386 -66.58252162 -6.8072408 -90.8125 21.3125 Z " fill="#0A4999" transform="translate(115,14)"/>
<path d="M0 0 C1.5056904 5.80766296 2.21824777 10.9981863 2 17 C0.35 17 -1.3 17 -3 17 C-3.24878906 17.84304687 -3.49757813 18.68609375 -3.75390625 19.5546875 C-9.62330214 35.78292315 -21.80495163 48.6647651 -36 58 C-25.3511128 53.01638138 -16.09601402 47.75244759 -8 39 C-7.49597656 38.47792969 -6.99195312 37.95585938 -6.47265625 37.41796875 C-2.59703118 33.22016458 -0.71976235 29.44591411 1 24 C0.34 24 -0.32 24 -1 24 C-1 23.34 -1 22.68 -1 22 C0.96875 20.4921875 0.96875 20.4921875 3.5 18.875 C4.3353125 18.33617188 5.170625 17.79734375 6.03125 17.2421875 C6.6809375 16.83226563 7.330625 16.42234375 8 16 C10.40201504 20.19879794 10.15864149 23.24075541 10 28 C8.68 28 7.36 28 6 28 C5.731875 28.73734375 5.46375 29.4746875 5.1875 30.234375 C-1.43012433 45.64647376 -17.86125934 55.41185202 -32.77270508 61.48681641 C-46.62340439 66.83282036 -61.67522702 70.23361808 -76.5625 70.0625 C-77.59503906 70.05347656 -78.62757812 70.04445313 -79.69140625 70.03515625 C-80.45324219 70.02355469 -81.21507813 70.01195313 -82 70 C-78.70155618 67.80103745 -75.50232607 66.84763432 -71.75 65.75 C-47.42527964 58.30630929 -28.6639987 46.89707709 -16 24 C-14.19062308 20.38547368 -12.52082319 16.74474052 -11 13 C-12.98 12.34 -14.96 11.68 -17 11 C-13.71260831 8.26050693 -10.29434726 5.73415441 -6.8125 3.25 C-5.52279297 2.32960937 -5.52279297 2.32960937 -4.20703125 1.390625 C-2 0 -2 0 0 0 Z " fill="#0E4C9E" transform="translate(110,34)"/>
<path d="M0 0 C0.96164063 0.07089844 1.92328125 0.14179688 2.9140625 0.21484375 C19.3119848 2.18171044 34.59061807 11.23758301 45.3125 23.625 C48.46616788 27.86336894 50.96727418 32.37362718 53.375 37.0625 C53.70927002 37.71105957 54.04354004 38.35961914 54.38793945 39.02783203 C60.98190735 52.55540047 61.14050647 70.6081963 57.1640625 84.953125 C50.35333412 102.77986372 37.01140037 116.91407531 19.6628418 124.76269531 C13.78406792 127.25890861 8.35363203 128.57591967 2 129 C1.00444092 129.07154297 1.00444092 129.07154297 -0.01123047 129.14453125 C-19.27265784 130.35675864 -34.30780564 124.7660671 -49.03515625 112.46484375 C-61.95278141 100.40010168 -68.73044379 84.86256319 -70.2265625 67.34765625 C-70.85031584 48.03965518 -62.90729448 32.02372055 -50.16015625 18.09765625 C-36.87354341 5.1954662 -18.37965391 -1.45833526 0 0 Z M-30 8 C-30.92167969 8.40089844 -31.84335937 8.80179688 -32.79296875 9.21484375 C-47.39404423 16.31973943 -57.45274615 28.49589487 -63.17578125 43.515625 C-63.44777344 44.33546875 -63.71976563 45.1553125 -64 46 C-64.35707031 47.02351563 -64.71414062 48.04703125 -65.08203125 49.1015625 C-68.54754304 61.53791385 -67.14011156 77.28257465 -62 89 C-61.4740625 90.29357422 -61.4740625 90.29357422 -60.9375 91.61328125 C-54.13296043 106.80536091 -42.03983893 116.0403274 -27.23828125 122.7734375 C-11.3103715 128.80644553 6.50907137 127.32320663 22.015625 120.71484375 C28.98009696 117.22288086 34.50189044 112.46891606 40 107 C40.55300781 106.48179688 41.10601562 105.96359375 41.67578125 105.4296875 C45.44632824 101.54734532 47.80194967 96.90062358 50.25 92.125 C50.5917627 91.46491943 50.93352539 90.80483887 51.28564453 90.12475586 C57.7010167 77.08464087 58.35783585 59.77284298 54.4375 45.875 C47.84216221 28.14858334 35.68125924 15.2500636 18.6496582 7.23852539 C4.12111739 1.11230223 -15.68762641 1.39269584 -30 8 Z " fill="#DFE5E2" transform="translate(80,11)"/>
<path d="M0 0 C1.51490581 1.16842485 3.0160781 2.35496862 4.5 3.5625 C5.52287109 4.30886719 5.52287109 4.30886719 6.56640625 5.0703125 C16.83590115 13.06886234 24.2519984 26.84476838 26.5 39.5625 C27.74482834 58.07837849 26.07249249 74.30091509 14.2890625 89.39453125 C12.10540608 91.88002413 9.85378073 94.2384066 7.5 96.5625 C6.95988281 97.12453125 6.41976562 97.6865625 5.86328125 98.265625 C-5.8921323 109.51765812 -22.3538262 113.07659803 -38.06469727 112.98461914 C-54.18785819 112.51995278 -69.54763427 105.02501893 -80.625 93.31640625 C-90.97045867 81.07036143 -96.10752543 67.1590954 -95.9375 51.1875 C-95.92992676 50.18235352 -95.92235352 49.17720703 -95.91455078 48.14160156 C-95.74115165 40.30193591 -94.74546344 33.77577141 -91.5 26.5625 C-91.09910156 25.63824219 -90.69820312 24.71398438 -90.28515625 23.76171875 C-83.16306848 9.16659976 -71.01023873 -0.88790904 -55.984375 -6.61328125 C-55.16453125 -6.88527344 -54.3446875 -7.15726563 -53.5 -7.4375 C-52.49324219 -7.79199219 -51.48648438 -8.14648438 -50.44921875 -8.51171875 C-33.30778116 -13.2752777 -14.55390635 -9.70260423 0 0 Z M-70.5 4.5625 C-71.22703125 5.10777344 -71.9540625 5.65304688 -72.703125 6.21484375 C-84.40687277 15.70738727 -91.33697004 29.84048211 -93.5 44.5625 C-94.20982263 53.41097385 -93.48864706 61.20869134 -90.5 69.5625 C-90.14808594 70.5628125 -89.79617187 71.563125 -89.43359375 72.59375 C-86.77356383 79.54669951 -83.44481189 85.01571101 -78.5 90.5625 C-77.98953125 91.16578125 -77.4790625 91.7690625 -76.953125 92.390625 C-68.29267089 101.90854981 -55.21833605 108.93921525 -42.32104492 109.68920898 C-23.73553138 110.28214199 -8.73465363 107.34871519 5.5 94.5625 C17.55988827 83.02347069 24.31718884 67.96029101 24.6875 51.25 C24.49935635 35.75950651 18.02273768 21.15557277 7.5 9.9375 C-0.94111231 1.82943838 -10.9845617 -3.94489171 -22.5 -6.4375 C-23.26570313 -6.61667969 -24.03140625 -6.79585937 -24.8203125 -6.98046875 C-41.4891903 -9.82341146 -57.10369615 -5.57228543 -70.5 4.5625 Z " fill="#10489B" transform="translate(109.5,24.4375)"/>
<path d="M0 0 C3.39187279 1.41573821 5.09697541 3.04230966 7.25 6 C8.03117187 7.051875 8.03117187 7.051875 8.828125 8.125 C10 10 10 10 10 12 C8.35 12 6.7 12 5 12 C4.90525391 13.59714844 4.90525391 13.59714844 4.80859375 15.2265625 C3.63758853 30.42497756 -1.3652218 42.56429717 -13 53 C-23.1252221 61.06476355 -36.92816962 66.93715466 -50 67 C-47.98544846 64.98544846 -46.67861545 64.29664039 -44.10546875 63.1875 C-30.88946347 57.32502604 -17.65340369 50.93161313 -10 38 C-9.62617187 37.38898438 -9.25234375 36.77796875 -8.8671875 36.1484375 C-4.75718859 28.75043947 -3.31369033 20.2750213 -2 12 C-3.98 12 -5.96 12 -8 12 C-6.85573734 10.186508 -5.70954608 8.37423275 -4.5625 6.5625 C-3.92441406 5.55316406 -3.28632812 4.54382812 -2.62890625 3.50390625 C-1 1 -1 1 0 0 Z " fill="#0D4B9E" transform="translate(79,30)"/>
<path d="M0 0 C0.66 0.33 1.32 0.66 2 1 C2 11.56 2 22.12 2 33 C-11 38 -11 38 -13 38 C-13.12355727 32.92806922 -13.21431615 27.85701304 -13.2746582 22.78393555 C-13.29981005 21.05819441 -13.33393619 19.33255988 -13.37719727 17.60717773 C-13.43782433 15.12717419 -13.46620101 12.64857778 -13.48828125 10.16796875 C-13.51408768 9.39599655 -13.5398941 8.62402435 -13.56648254 7.82865906 C-13.56762695 5.64526367 -13.56762695 5.64526367 -13 2 C-8.4460984 -1.80977272 -5.51218698 -1.08436465 0 0 Z " fill="#0A4CA0" transform="translate(100,93)"/>
<path d="M0 0 C1.90487846 21.96338191 1.90487846 21.96338191 -2.30859375 28.1953125 C-5.9491803 32.48771254 -9.9704159 35.48520795 -15 38 C-15 25.79 -15 13.58 -15 1 C-9.75329719 -1.6233514 -5.57437638 -1.5280637 0 0 Z " fill="#084A9F" transform="translate(122,84)"/>
<path d="M0 0 C0.99 0.66 1.98 1.32 3 2 C3.34057617 4.79736328 3.34057617 4.79736328 3.29296875 8.3203125 C3.28330078 9.57714844 3.27363281 10.83398438 3.26367188 12.12890625 C3.23853516 13.44761719 3.21339844 14.76632813 3.1875 16.125 C3.17245483 17.46482903 3.15876613 18.80467404 3.14648438 20.14453125 C3.1110312 23.42985906 3.05722294 26.71497925 3 30 C-1.62 30 -6.24 30 -11 30 C-11.11487601 26.06613484 -11.21436277 22.13654334 -11.2746582 18.2019043 C-11.31214374 16.20646445 -11.37567535 14.21156948 -11.43945312 12.21679688 C-11.45556641 10.96318359 -11.47167969 9.70957031 -11.48828125 8.41796875 C-11.51446533 7.26063232 -11.54064941 6.1032959 -11.56762695 4.91088867 C-11 2 -11 2 -8.66479492 0.0871582 C-5.29782074 -1.28646855 -3.46701737 -0.97980926 0 0 Z " fill="#03469F" transform="translate(80,102)"/>
<path d="M0 0 C0.96164063 0.07089844 1.92328125 0.14179688 2.9140625 0.21484375 C9.26641951 0.97678415 14.84322568 2.93948647 20.6875 5.4375 C21.39559814 5.73793213 22.10369629 6.03836426 22.83325195 6.34790039 C24.5978789 7.14398409 26.30537613 8.06410072 28 9 C28.495 10.485 28.495 10.485 29 12 C24.67212022 11.35732612 21.21865456 9.73872412 17.25 7.9375 C3.94371407 2.51954305 -13.87190846 2.58102893 -27.296875 7.75 C-28.18890625 8.1625 -29.0809375 8.575 -30 9 C-31.39992188 9.61875 -31.39992188 9.61875 -32.828125 10.25 C-47.08726941 17.26008217 -56.58243529 28.83625552 -62.17578125 43.515625 C-62.44777344 44.33546875 -62.71976563 45.1553125 -63 46 C-63.35191406 47.02738281 -63.70382813 48.05476563 -64.06640625 49.11328125 C-65.25785642 54.07350269 -65.458206 58.85375784 -65.625 63.9375 C-65.66367188 64.90751953 -65.70234375 65.87753906 -65.7421875 66.87695312 C-65.83575076 69.25112076 -65.92149208 71.62529492 -66 74 C-66.33 74 -66.66 74 -67 74 C-67.33 69.38 -67.66 64.76 -68 60 C-68.33 63.3 -68.66 66.6 -69 70 C-69.33 70 -69.66 70 -70 70 C-71.07283948 50.52995019 -64.47975692 34.96387694 -52.1875 20.3125 C-39.01638551 5.92324776 -19.32464366 -1.53331555 0 0 Z " fill="#DFE5E1" transform="translate(80,11)"/>
<path d="M0 0 C0 6.6 0 13.2 0 20 C-10.17857143 18.125 -10.17857143 18.125 -14 16 C-14.13489391 13.73078464 -14.23193995 11.4592933 -14.3125 9.1875 C-14.37050781 7.92292969 -14.42851563 6.65835938 -14.48828125 5.35546875 C-14 2 -14 2 -12.04296875 -0.01171875 C-9 -1 -9 -1 0 0 Z " fill="#0C4BA0" transform="translate(64,111)"/>
<path d="M0 0 C15.69429146 8.20383417 26.20791156 20.52758834 32.44140625 37.01171875 C33 39 33 39 33 42 C31.1171875 41.80859375 31.1171875 41.80859375 29 41 C27.9453125 38.84765625 27.9453125 38.84765625 27.125 36.0625 C21.98590906 20.76382159 12.01941053 11.02465647 -1.99609375 3.59375 C-5 2 -5 2 -8 0 C-4.6002824 -1.1332392 -3.39097531 -0.96813348 0 0 Z " fill="#164C9C" transform="translate(102,20)"/>
<path d="M0 0 C12.1684464 -0.35327748 22.46703243 0.64154445 33.6875 5.4375 C34.39559814 5.73793213 35.10369629 6.03836426 35.83325195 6.34790039 C37.5978789 7.14398409 39.30537613 8.06410072 41 9 C41.495 10.485 41.495 10.485 42 12 C38.37151235 11.45126841 35.33146615 10.30959051 31.98632812 8.82861328 C21.22701654 4.19446309 10.5860557 3.97757124 -1 4 C-1 3.67 -1 3.34 -1 3 C0.65 2.67 2.3 2.34 4 2 C2.68 1.34 1.36 0.68 0 0 Z " fill="#DDE3E1" transform="translate(67,11)"/>
<path d="M0 0 C1.32 0.66 2.64 1.32 4 2 C4 5.63 4 9.26 4 13 C0.68938278 11.34469139 -1.50007033 9.930495 -4.25 7.5625 C-4.95640625 6.96566406 -5.6628125 6.36882812 -6.390625 5.75390625 C-8 4 -8 4 -8 1 C-5.2201184 -0.3899408 -3.0813674 -0.18488204 0 0 Z " fill="#18509F" transform="translate(42,111)"/>
<path d="M0 0 C0.33 0 0.66 0 1 0 C1.33 11.55 1.66 23.1 2 35 C8.90530134 28.97237031 8.90530134 28.97237031 14.7734375 22.28515625 C15.17820312 21.86105469 15.58296875 21.43695313 16 21 C16.66 21 17.32 21 18 21 C14.88918216 27.84684908 9.1042419 33.69928412 3 38 C2.01 37.67 1.02 37.34 0 37 C0 24.79 0 12.58 0 0 Z " fill="#D3DCDF" transform="translate(106,86)"/>
<path d="M0 0 C0 1.65 0 3.3 0 5 C-2.26882087 5.83919398 -4.53977027 6.67151724 -6.8125 7.5 C-7.77639648 7.85771484 -7.77639648 7.85771484 -8.75976562 8.22265625 C-11.64933739 9.27068746 -13.90076061 10 -17 10 C-17 9.01 -17 8.02 -17 7 C-17.99 6.34 -18.98 5.68 -20 5 C-19.20335937 4.80664062 -18.40671875 4.61328125 -17.5859375 4.4140625 C-12.05659148 3.05526944 -5.62201537 0 0 0 Z " fill="#F0F3E9" transform="translate(53,91)"/>
<path d="M0 0 C0.33 0 0.66 0 1 0 C1.05905417 3.29158865 1.09394375 6.58303756 1.125 9.875 C1.14175781 10.7928125 1.15851563 11.710625 1.17578125 12.65625 C1.22051277 19.00812606 0.48851563 24.82610036 -1 31 C-1.99 30.67 -2.98 30.34 -4 30 C-3.72273158 25.56147643 -3.42573683 21.12449033 -3.125 16.6875 C-3.04636719 15.42486328 -2.96773437 14.16222656 -2.88671875 12.86132812 C-2.80292969 11.65283203 -2.71914062 10.44433594 -2.6328125 9.19921875 C-2.55949707 8.08377686 -2.48618164 6.96833496 -2.41064453 5.8190918 C-2 3 -2 3 0 0 Z " fill="#CFD7D9" transform="translate(138,65)"/>
<path d="M0 0 C0.66 0 1.32 0 2 0 C2 11.22 2 22.44 2 34 C2.66 34.33 3.32 34.66 4 35 C2.02 35.495 2.02 35.495 0 36 C0 24.12 0 12.24 0 0 Z " fill="#365FA4" transform="translate(87,95)"/>
<path d="M0 0 C0 0.33 0 0.66 0 1 C-1.02738281 1.18175781 -2.05476563 1.36351562 -3.11328125 1.55078125 C-10.46082945 2.87668134 -17.63290486 4.28744191 -24.765625 6.546875 C-27.21222163 7.04303795 -28.65854116 6.79480713 -31 6 C-22.17632497 -1.22488987 -10.76475985 -0.36467819 0 0 Z " fill="#D5DCDD" transform="translate(79,12)"/>
<path d="M0 0 C0.33 7.26 0.66 14.52 1 22 C-0.98 22 -2.96 22 -5 22 C-4.34 21.67 -3.68 21.34 -3 21 C-3 14.4 -3 7.8 -3 1 C-1 0 -1 0 0 0 Z " fill="#FDFDEF" transform="translate(68,111)"/>
<path d="M0 0 C0.33 0.66 0.66 1.32 1 2 C-8.57678356 13.52206771 -8.57678356 13.52206771 -14 17 C-14.99 16.67 -15.98 16.34 -17 16 C-16.28199219 15.28328125 -15.56398438 14.5665625 -14.82421875 13.828125 C-13.00905657 12.01045222 -11.19873609 10.18792443 -9.39453125 8.359375 C-8.54246094 7.49828125 -7.69039062 6.6371875 -6.8125 5.75 C-5.52279297 4.44289063 -5.52279297 4.44289063 -4.20703125 3.109375 C-2 1 -2 1 0 0 Z " fill="#E1E8E3" transform="translate(126,112)"/>
<path d="M0 0 C0.33 0 0.66 0 1 0 C1.12359943 4.64467639 1.21433399 9.28839626 1.2746582 13.93432617 C1.2998033 15.51457389 1.33392474 17.09470529 1.37719727 18.67456055 C1.43785708 20.94609232 1.46620678 23.21608744 1.48828125 25.48828125 C1.51408768 26.19463211 1.5398941 26.90098297 1.56648254 27.6287384 C1.56762695 29.63012695 1.56762695 29.63012695 1 33 C-1.40551758 34.89135742 -1.40551758 34.89135742 -4 36 C-4.66 36.4125 -5.32 36.825 -6 37.25 C-8.63470351 38.23801382 -10.33415168 37.74051342 -13 37 C-10 35 -10 35 0 32 C0 21.44 0 10.88 0 0 Z " fill="#F4F8F0" transform="translate(102,94)"/>
<path d="M0 0 C0.33 0.66 0.66 1.32 1 2 C1.66 2 2.32 2 3 2 C2.84660156 2.76570313 2.69320313 3.53140625 2.53515625 4.3203125 C1.8304832 9.16558268 1.63953203 13.98648739 1.4375 18.875 C1.39431641 19.84953125 1.35113281 20.8240625 1.30664062 21.828125 C1.20117726 24.21862802 1.09905825 26.60922444 1 29 C0.67 29 0.34 29 0 29 C-0.33 24.38 -0.66 19.76 -1 15 C-1.33 18.3 -1.66 21.6 -2 25 C-2.33 25 -2.66 25 -3 25 C-3.48032656 16.28296246 -2.07313419 8.45295786 0 0 Z " fill="#ABB8C9" transform="translate(13,56)"/>
<path d="M0 0 C2.0390625 0.20703125 2.0390625 0.20703125 4.625 0.8125 C12.03587741 2.34204194 19.4607172 2.64053608 27 3 C27 3.33 27 3.66 27 4 C23.04 4 19.08 4 15 4 C15 4.66 15 5.32 15 6 C8.80481527 5.58411954 3.73310689 4.39748106 -2 2 C-1.34 1.34 -0.68 0.68 0 0 Z " fill="#2656A0" transform="translate(54,131)"/>
<path d="M0 0 C0.33 0 0.66 0 1 0 C1 6.6 1 13.2 1 20 C-5.0278871 21.00464785 -6.18005142 20.92908768 -11.375 18.5625 C-12.43460938 18.08941406 -13.49421875 17.61632812 -14.5859375 17.12890625 C-15.38257813 16.75636719 -16.17921875 16.38382813 -17 16 C-16.34 15.67 -15.68 15.34 -15 15 C-14.67 14.01 -14.34 13.02 -14 12 C-14 12.99 -14 13.98 -14 15 C-13.15695313 15.20496094 -12.31390625 15.40992187 -11.4453125 15.62109375 C-10.34960938 15.89050781 -9.25390625 16.15992188 -8.125 16.4375 C-7.03445312 16.70433594 -5.94390625 16.97117188 -4.8203125 17.24609375 C-2 18 -2 18 0 19 C0 12.73 0 6.46 0 0 Z " fill="#C6D1D8" transform="translate(64,112)"/>
<path d="M0 0 C0.33 0 0.66 0 1 0 C1.26554687 0.88042969 1.53109375 1.76085937 1.8046875 2.66796875 C2.15789063 3.82941406 2.51109375 4.99085937 2.875 6.1875 C3.22304688 7.33605469 3.57109375 8.48460938 3.9296875 9.66796875 C4.84218871 12.50871157 5.84980364 15.24885465 7 18 C6.01 18.66 5.02 19.32 4 20 C2.93658947 17.61183228 1.89954977 15.21728385 0.875 12.8125 C0.42060547 11.80219727 0.42060547 11.80219727 -0.04296875 10.77148438 C-1.44066344 7.43977029 -2.15197041 5.55360649 -1.1796875 2.01171875 C-0.79039063 1.34785156 -0.40109375 0.68398437 0 0 Z " fill="#1A4E9C" transform="translate(17,87)"/>
<path d="M0 0 C4.32046898 1.41680244 7.00461199 3.53763785 10.3125 6.625 C11.19550781 7.44226563 12.07851562 8.25953125 12.98828125 9.1015625 C13.98408203 10.04128906 13.98408203 10.04128906 15 11 C14.34 12.32 13.68 13.64 13 15 C12.38125 14.154375 11.7625 13.30875 11.125 12.4375 C7.49514709 8.02906995 2.73458534 5.10735892 -2 2 C-1.34 1.34 -0.68 0.68 0 0 Z " fill="#DAE0DF" transform="translate(109,22)"/>
<path d="M0 0 C13.6332574 -0.18451025 13.6332574 -0.18451025 20 1 C18.39441516 2.92536938 17.52230522 3.91074167 15.00708008 4.34057617 C14.26868896 4.32486572 13.53029785 4.30915527 12.76953125 4.29296875 C11.96708984 4.28330078 11.16464844 4.27363281 10.33789062 4.26367188 C9.50451172 4.23853516 8.67113281 4.21339844 7.8125 4.1875 C6.96751953 4.17396484 6.12253906 4.16042969 5.25195312 4.14648438 C3.16769616 4.11115799 1.08376723 4.05735139 -1 4 C-1 3.67 -1 3.34 -1 3 C0.65 2.67 2.3 2.34 4 2 C2.68 1.34 1.36 0.68 0 0 Z " fill="#A4B3C8" transform="translate(67,11)"/>
<path d="M0 0 C2.08745045 3.13117567 2.27653996 4.06946224 2.4140625 7.66796875 C2.45273437 8.56064453 2.49140625 9.45332031 2.53125 10.37304688 C2.57765625 11.76620117 2.57765625 11.76620117 2.625 13.1875 C2.66367187 14.12787109 2.70234375 15.06824219 2.7421875 16.03710938 C2.83643187 18.3578771 2.92204025 20.67863748 3 23 C2.34 23.33 1.68 23.66 1 24 C0.01956036 21.05868109 -0.11621202 19.17498335 -0.09765625 16.11328125 C-0.09443359 15.17548828 -0.09121094 14.23769531 -0.08789062 13.27148438 C-0.07532227 11.80678711 -0.07532227 11.80678711 -0.0625 10.3125 C-0.05798828 9.32443359 -0.05347656 8.33636719 -0.04882812 7.31835938 C-0.03704303 4.87884526 -0.02059011 2.43945311 0 0 Z " fill="#033D9A" transform="translate(14,66)"/>
<path d="M0 0 C0.66 0.33 1.32 0.66 2 1 C-3.94 6.94 -9.88 12.88 -16 19 C-16 13.49581073 -10.69222469 9.76817235 -7 6 C-4.72454022 3.90179524 -2.40856363 1.94734932 0 0 Z " fill="#13488C" transform="translate(32,16)"/>
<path d="M0 0 C6.93 0.33 13.86 0.66 21 1 C20.67 1.66 20.34 2.32 20 3 C14.06 3 8.12 3 2 3 C2 2.34 2 1.68 2 1 C1.34 0.67 0.68 0.34 0 0 Z " fill="#E1E6E5" transform="translate(62,137)"/>
<path d="M0 0 C0.33 0.66 0.66 1.32 1 2 C-7.83223535 3.19354532 -16.15967082 2.77546747 -25 2 C-25 1.67 -25 1.34 -25 1 C-23.35451172 0.90912109 -23.35451172 0.90912109 -21.67578125 0.81640625 C-20.22134346 0.73195502 -18.76691695 0.64730934 -17.3125 0.5625 C-16.59126953 0.52318359 -15.87003906 0.48386719 -15.12695312 0.44335938 C-1.00524026 -0.39491582 -1.00524026 -0.39491582 0 0 Z " fill="#CED7DA" transform="translate(93,136)"/>
<path d="M0 0 C1.32 0.66 2.64 1.32 4 2 C3.52949219 2.39832031 3.05898438 2.79664063 2.57421875 3.20703125 C1.95160156 3.73683594 1.32898437 4.26664063 0.6875 4.8125 C0.07261719 5.33457031 -0.54226562 5.85664062 -1.17578125 6.39453125 C-2.85424679 7.87172469 -4.43882034 9.40039131 -6 11 C-6 10.34 -6 9.68 -6 9 C-6.66 8.67 -7.32 8.34 -8 8 C-5.36 5.36 -2.72 2.72 0 0 Z " fill="#1D4F9C" transform="translate(35,28)"/>
<path d="M0 0 C-2.475 1.485 -2.475 1.485 -5 3 C-4.34 3.66 -3.68 4.32 -3 5 C-5.90600261 6.25664978 -7.79604584 7 -11 7 C-11 6.01 -11 5.02 -11 4 C-11.99 3.34 -12.98 2.68 -14 2 C-12.04396149 1.47061343 -10.08507711 0.95173199 -8.125 0.4375 C-7.03445312 0.14746094 -5.94390625 -0.14257812 -4.8203125 -0.44140625 C-2 -1 -2 -1 0 0 Z " fill="#D8DFDE" transform="translate(47,94)"/>
<path d="M0 0 C-3.74235319 2.44989101 -7.44225419 2.23086143 -11.75 2.125 C-12.44738281 2.11597656 -13.14476563 2.10695312 -13.86328125 2.09765625 C-15.57566958 2.07419888 -17.28788004 2.03833104 -19 2 C-19 1.34 -19 0.68 -19 0 C-12.48755792 -0.69508823 -6.4489191 -1.31909709 0 0 Z " fill="#043E99" transform="translate(88,135)"/>
<path d="M0 0 C-0.56959153 3.62613199 -1.92374534 5.25517741 -4.5625 7.75 C-5.52349609 8.67039062 -5.52349609 8.67039062 -6.50390625 9.609375 C-7.24447266 10.29773438 -7.24447266 10.29773438 -8 11 C-8.99 10.34 -9.98 9.68 -11 9 C-9.54782324 7.49403892 -8.08807139 5.99537896 -6.625 4.5 C-5.40683594 3.24703125 -5.40683594 3.24703125 -4.1640625 1.96875 C-2 0 -2 0 0 0 Z " fill="#054398" transform="translate(123,112)"/>
<path d="M0 0 C0.99 0.99 1.98 1.98 3 3 C2.60446947 4.6510403 2.18286103 6.2958515 1.75 7.9375 C1.51796875 8.85402344 1.2859375 9.77054688 1.046875 10.71484375 C0 13 0 13 -2.109375 13.81640625 C-2.73328125 13.87699219 -3.3571875 13.93757813 -4 14 C-3.69255859 13.11248047 -3.69255859 13.11248047 -3.37890625 12.20703125 C-2.0002429 8.16339184 -0.68249153 4.23144751 0 0 Z " fill="#12489A" transform="translate(132,87)"/>
<path d="M0 0 C1.32 0 2.64 0 4 0 C4.50615298 1.26839526 5.00469099 2.53983102 5.5 3.8125 C5.91765625 4.87404297 5.91765625 4.87404297 6.34375 5.95703125 C7 8 7 8 7 11 C5.109375 10.81640625 5.109375 10.81640625 3 10 C1.953125 7.71484375 1.953125 7.71484375 1.25 4.9375 C1.00765625 4.01839844 0.7653125 3.09929688 0.515625 2.15234375 C0.34546875 1.44207031 0.1753125 0.73179688 0 0 Z " fill="#2455A0" transform="translate(128,51)"/>
<path d="M0 0 C2 1 2 1 3 3 C-1.95 5.475 -1.95 5.475 -7 8 C-7.99 7.34 -8.98 6.68 -10 6 C-8.3811004 4.96951963 -6.75467511 3.95085322 -5.125 2.9375 C-4.22007813 2.36902344 -3.31515625 1.80054687 -2.3828125 1.21484375 C-1.20332031 0.61349609 -1.20332031 0.61349609 0 0 Z " fill="#D7DDDD" transform="translate(47,17)"/>
<path d="M0 0 C0.74507812 0.01353516 1.49015625 0.02707031 2.2578125 0.04101562 C4.08885416 0.07622796 5.91952169 0.13003149 7.75 0.1875 C7.75 0.5175 7.75 0.8475 7.75 1.1875 C-5.8832574 3.48362756 -5.8832574 3.48362756 -12.25 3.1875 C-8.60142562 -0.47067589 -4.85390995 -0.16722835 0 0 Z " fill="#F2F4EC" transform="translate(71.25,11.8125)"/>
<path d="M0 0 C-1 3 -1 3 -4.25 4.75 C-7.92081925 5.97360642 -9.41608962 6.19463679 -13 5 C-10.54278328 3.36185552 -8.65432189 2.38047801 -5.9375 1.375 C-5.24527344 1.11460938 -4.55304688 0.85421875 -3.83984375 0.5859375 C-2 0 -2 0 0 0 Z " fill="#CCD6DB" transform="translate(102,126)"/>
<path d="M0 0 C3.94120709 0.56302958 6.7508723 1.6791945 10 4 C10 4.66 10 5.32 10 6 C6.05879291 5.43697042 3.2491277 4.3208055 0 2 C0 1.34 0 0.68 0 0 Z " fill="#E4EAE5" transform="translate(99,17)"/>
<path d="M0 0 C3.24208567 0.35049575 4.61527704 0.56221181 6.8125 3.0625 C7.204375 3.701875 7.59625 4.34125 8 5 C6.25 5.75 6.25 5.75 4 6 C1.75 4.1875 1.75 4.1875 0 2 C0 1.34 0 0.68 0 0 Z " fill="#2D59A0" transform="translate(114,31)"/>
<path d="M0 0 C0.33 0.99 0.66 1.98 1 3 C3.09719872 4.02281518 3.09719872 4.02281518 5.5625 4.6875 C6.38878906 4.93886719 7.21507812 5.19023437 8.06640625 5.44921875 C9.02353516 5.72185547 9.02353516 5.72185547 10 6 C10 6.33 10 6.66 10 7 C1.42857143 6.28571429 1.42857143 6.28571429 -2 3 C-1.34 3 -0.68 3 0 3 C0 2.01 0 1.02 0 0 Z " fill="#D9E1E1" transform="translate(49,124)"/>
<path d="M0 0 C2.97 0.99 5.94 1.98 9 3 C9 3.66 9 4.32 9 5 C6 6 6 6 3.375 4.75 C1 3 1 3 0 0 Z " fill="#0C469A" transform="translate(45,127)"/>
<path d="M0 0 C0.33 0.66 0.66 1.32 1 2 C1.66 2 2.32 2 3 2 C4.125 7.75 4.125 7.75 3 10 C2.34 10 1.68 10 1 10 C0.67 6.7 0.34 3.4 0 0 Z " fill="#11489C" transform="translate(132,60)"/>
<path d="M0 0 C-2.49505962 2.49505962 -3.67328888 2.35948376 -7.125 2.625 C-8.03507812 2.69976562 -8.94515625 2.77453125 -9.8828125 2.8515625 C-10.93082031 2.92503906 -10.93082031 2.92503906 -12 3 C-8.2699487 -0.7300513 -5.02945658 -1.43698759 0 0 Z " fill="#2E569D" transform="translate(41,94)"/>
<path d="M0 0 C0.33 0 0.66 0 1 0 C1 2.31 1 4.62 1 7 C-0.98 7.99 -0.98 7.99 -3 9 C-2.67 7.02 -2.34 5.04 -2 3 C-1.34 3 -0.68 3 0 3 C0 2.01 0 1.02 0 0 Z " fill="#E1E6E2" transform="translate(135,92)"/>
<path d="M0 0 C2 2 2 2 2.125 5.625 C2.08375 6.73875 2.0425 7.8525 2 9 C1.34 9 0.68 9 0 9 C-1.125 2.25 -1.125 2.25 0 0 Z " fill="#DFE5E2" transform="translate(13,85)"/>
<path d="M0 0 C0.99 0.33 1.98 0.66 3 1 C-0.5087188 4.09592835 -3.49197399 5.74194623 -8 7 C-3.04087193 1.86376022 -3.04087193 1.86376022 0 0 Z " fill="#BECAD6" transform="translate(81,86)"/>
<path d="M0 0 C1.32 0.66 2.64 1.32 4 2 C2.35 3.32 0.7 4.64 -1 6 C-1 5.34 -1 4.68 -1 4 C-1.66 3.67 -2.32 3.34 -3 3 C-2.01 2.01 -1.02 1.02 0 0 Z " fill="#305CA0" transform="translate(35,28)"/>
<path d="M0 0 C1.32 0.66 2.64 1.32 4 2 C0.7 2 -2.6 2 -6 2 C-6 1.34 -6 0.68 -6 0 C-3 -1 -3 -1 0 0 Z " fill="#023C98" transform="translate(42,101)"/>
<path d="M0 0 C0.33 0.66 0.66 1.32 1 2 C1.99 2.33 2.98 2.66 4 3 C3.01 3.33 2.02 3.66 1 4 C0.67 4.66 0.34 5.32 0 6 C0 5.34 0 4.68 0 4 C-1.32 3.67 -2.64 3.34 -4 3 C-2.68 2.67 -1.36 2.34 0 2 C0 1.34 0 0.68 0 0 Z " fill="#496CA2" transform="translate(59,51)"/>
<path d="M0 0 C2.31 0.33 4.62 0.66 7 1 C6.67 1.99 6.34 2.98 6 4 C4.02 3.34 2.04 2.68 0 2 C0 1.34 0 0.68 0 0 Z " fill="#CCD6D9" transform="translate(44,131)"/>
<path d="M0 0 C0.66 0 1.32 0 2 0 C0.70700306 2.88437779 -0.65941363 4.87219421 -3 7 C-3.33 6.34 -3.66 5.68 -4 5 C-2.71937515 3.2925002 -1.38232443 1.62626404 0 0 Z " fill="#CDD6DB" transform="translate(122,107)"/>
<path d="M0 0 C0.66 0 1.32 0 2 0 C1.39816251 2.02045442 0.72693904 4.02111039 0 6 C-0.99 6.495 -0.99 6.495 -2 7 C-2.33 6.01 -2.66 5.02 -3 4 C-1.6875 1.8125 -1.6875 1.8125 0 0 Z " fill="#034198" transform="translate(129,100)"/>
<path d="M0 0 C1.74627478 2.61941217 2.38722388 4.03824877 3 7 C1.0625 6.6875 1.0625 6.6875 -1 6 C-1.33 5.01 -1.66 4.02 -2 3 C-1.34 2.01 -0.68 1.02 0 0 Z " fill="#24569F" transform="translate(19,94)"/>
<path d="M0 0 C0.99 0.99 1.98 1.98 3 3 C2.67 3.99 2.34 4.98 2 6 C-0.0625 6.6875 -0.0625 6.6875 -2 7 C-1.34 4.69 -0.68 2.38 0 0 Z " fill="#2758A1" transform="translate(130,94)"/>
<path d="M0 0 C0 1.32 0 2.64 0 4 C-0.99 4.33 -1.98 4.66 -3 5 C-3.99 4.01 -4.98 3.02 -6 2 C-2.25 0 -2.25 0 0 0 Z " fill="#1A519E" transform="translate(44,90)"/>
<path d="M0 0 C0.99 0 1.98 0 3 0 C3 0.66 3 1.32 3 2 C2.01 2 1.02 2 0 2 C0 1.34 0 0.68 0 0 Z " fill="#23487A" transform="translate(17,138)"/>
<path d="M0 0 C0.66 0 1.32 0 2 0 C1.67 0.99 1.34 1.98 1 3 C0.67 2.01 0.34 1.02 0 0 Z " fill="#20477E" transform="translate(0,127)"/>
<path d="M0 0 C1.485 0.99 1.485 0.99 3 2 C2.01 2 1.02 2 0 2 C0 1.34 0 0.68 0 0 Z " fill="#1F4579" transform="translate(138,141)"/>
<path d="" fill="#2F4D71" transform="translate(0,0)"/>
<path d="" fill="#304A6D" transform="translate(0,0)"/>
<path d="" fill="#354F73" transform="translate(0,0)"/>
</svg>
